<svg xmlns="http://www.w3.org/2000/svg" width="192" height="192" viewBox="0 0 512 512">
  <rect width="512" height="512" rx="96" fill="#06080c"/>
  <g transform="translate(30,20) scale(0.88)">
    <g fill="#e09422">
      <path d="M340,100 C360,85 385,82 405,90 C420,96 432,110 440,128 C448,148 450,165 445,178 L462,168 C475,160 485,158 488,165 C490,172 482,180 470,186 L440,200 C430,210 415,215 400,212 L340,100Z"/>
      <path d="M340,100 C320,105 300,120 285,142 C272,162 268,180 270,200 L290,175 C300,158 315,140 335,125 C342,118 342,108 340,100Z"/>
      <circle cx="395" cy="145" r="18" fill="#06080c"/>
      <circle cx="399" cy="142" r="7" fill="#e09422"/>
      <circle cx="400" cy="141" r="3" fill="#fff"/>
      <path d="M400,212 C385,225 365,235 340,240 C320,243 300,240 285,232 C275,226 270,218 270,200 C272,215 285,225 305,228 C325,230 350,225 375,212 C388,205 396,210 400,212Z"/>
      <path d="M270,200 C262,225 258,252 260,280 C263,310 272,335 288,355 C300,370 316,378 335,380 C320,372 306,358 295,340 C283,318 276,292 274,265 C272,242 274,220 280,205 Z"/>
      <path d="M285,142 C265,158 240,185 215,220 C192,255 175,290 168,320 C164,340 168,352 178,348 C185,335 198,305 218,272 C240,238 262,210 280,190 Z" opacity="0.9"/>
      <path d="M268,168 C245,188 218,220 192,260 C170,296 155,330 148,358 C144,378 148,390 158,386 C165,372 178,340 198,305 C222,268 248,236 268,212 Z" opacity="0.8"/>
      <path d="M255,195 C232,218 205,252 180,295 C160,332 145,368 140,395 C138,412 142,420 152,416 C158,400 170,368 190,332 C215,292 240,258 260,235 Z" opacity="0.7"/>
      <path d="M178,348 C172,365 168,382 172,392 C176,380 182,365 186,352 Z" fill="#c47a18"/>
      <path d="M158,386 C152,405 148,422 152,430 C156,418 162,402 166,388 Z" fill="#c47a18"/>
      <path d="M152,416 C146,435 142,450 146,456 C150,444 156,430 158,420 Z" fill="#c47a18"/>
    </g>
  </g>
</svg>
